<svg id="svg3354" xmlns:rdf="http://www.w3.org/1999/02/22-rdf-syntax-ns#" xmlns="http://www.w3.org/2000/svg" height="375.6" viewBox="0 0 398.61124 375.59653" width="398.61" version="1.1" xmlns:cc="http://creativecommons.org/ns#" xmlns:dc="http://purl.org/dc/elements/1.1/">
 <g id="layer8" transform="translate(-120.18 -1387.6)">
  <g id="g3506">
   <path id="path6516" transform="matrix(-.99939 .034870 -.034870 -.99939 245.3 1351.9)" fill="#666" d="m-107.94-39.515-108.87-3.812 57.735-92.376z"/>
   <path id="path6519" d="m-107.94-39.515-108.87-3.812 57.735-92.376z" transform="matrix(-.99939 .034870 -.034870 -.99939 300.6 1446.7)" fill="#fc0"/>
   <path id="path6521" transform="matrix(-2.6103 .091078 -.091078 -2.6103 -161.71 1389.1)" fill="#8787de" d="m-107.94-39.515-108.87-3.812 57.735-92.376z"/>
   <path id="path6523" transform="matrix(-.99939 .034870 -.034870 -.99939 245.3 1539.5)" fill="#e6e6e6" d="m-107.94-39.515-108.87-3.812 57.735-92.376z"/>
   <path id="path6525" d="m-107.94-39.515-108.87-3.812 57.735-92.376z" transform="matrix(.56004 -.019540 .019540 .56004 321.95 1746.6)" fill="#666"/>
   <path id="path6527" transform="matrix(.56004 -.019540 .019540 .56004 558.96 1651)" fill="#666" d="m-107.94-39.515-108.87-3.812 57.735-92.376z"/>
   <path id="path3505" d="m-107.94-39.515-108.87-3.812 57.735-92.376z" transform="matrix(.41980 -.014647 .014647 .41980 450.8 1494.8)" fill="#1a1a1a"/>
   <path id="path3499" d="m-107.94-39.515-108.87-3.812 57.735-92.376z" transform="matrix(-.99939 .034870 -.034870 -.99939 10.922 1633.2)" fill="#333"/>
  </g>
 </g>
</svg>
